<svg width="25" height="28" viewBox="0 0 25 28" fill="none" xmlns="http://www.w3.org/2000/svg">
<path fill-rule="evenodd" clip-rule="evenodd" d="M0 14C0 13.4697 0.164602 12.961 0.457595 12.586C0.750588 12.211 1.14797 12.0004 1.56233 12.0004H19.6634L12.9548 3.41791C12.6614 3.04243 12.4966 2.53317 12.4966 2.00217C12.4966 1.47116 12.6614 0.9619 12.9548 0.586421C13.2482 0.210942 13.6461 0 14.0609 0C14.4758 0 14.8737 0.210942 15.1671 0.586421L24.541 12.5843C24.6865 12.77 24.8019 12.9907 24.8807 13.2336C24.9595 13.4765 25 13.737 25 14C25 14.263 24.9595 14.5235 24.8807 14.7664C24.8019 15.0093 24.6865 15.23 24.541 15.4157L15.1671 27.4136C14.8737 27.7891 14.4758 28 14.0609 28C13.6461 28 13.2482 27.7891 12.9548 27.4136C12.6614 27.0381 12.4966 26.5288 12.4966 25.9978C12.4966 25.4668 12.6614 24.9576 12.9548 24.5821L19.6634 15.9996H1.56233C1.14797 15.9996 0.750588 15.789 0.457595 15.414C0.164602 15.039 0 14.5303 0 14Z" fill="#00AE70"/>
</svg>
