<svg width="53" height="53" viewBox="0 0 53 53" fill="none" xmlns="http://www.w3.org/2000/svg">
<path d="M37.7456 34.2482H28.5436V30.8568H24.6699V26.3441L22.0234 25.2871L24.7123 20.8027C24.684 20.5047 24.6699 20.228 24.6699 19.9659C24.6699 15.2901 28.4724 11.4941 33.1411 11.4941C37.8098 11.4941 41.6128 15.2972 41.6128 19.9659C41.6128 24.031 40.236 27.2098 37.7385 28.9623V34.2482H37.7456ZM29.5153 33.283H36.781V28.4441L37.0006 28.3022C39.3562 26.7699 40.6547 23.8113 40.6547 19.973C40.6547 15.8366 37.2845 12.4664 33.1481 12.4664C29.0118 12.4664 25.6416 15.8366 25.6416 19.973C25.6416 20.2427 25.6628 20.533 25.6987 20.8598L25.7199 21.023L23.4421 24.8119L25.6416 25.6917V29.8916H29.5153V33.283Z" fill="white"/>
<path d="M27.0977 41.5129H17.8958V38.1215H14.0215V33.6088L11.375 32.5517L14.0645 28.0679C14.0356 27.77 14.0215 27.4932 14.0215 27.2305C14.0215 22.5548 17.8245 18.7588 22.4932 18.7588C27.1613 18.7588 30.9644 22.5618 30.9644 27.2305C30.9644 31.2962 29.5882 34.4745 27.0907 36.227V41.5129H27.0977ZM18.8674 40.5477H26.1331V35.7094L26.3528 35.5674C28.7084 34.0346 30.0069 31.076 30.0069 27.2376C30.0069 23.1013 26.6366 19.731 22.5003 19.731C18.3639 19.731 14.9937 23.1013 14.9937 27.2376C14.9937 27.5073 15.0149 27.7982 15.0503 28.1245L15.0715 28.2876L12.7942 32.0765L14.9937 32.9563V37.1563H18.8674V40.5477Z" fill="white"/>
<path d="M21.2858 36.6672H17.8943C16.5599 36.6672 15.4746 35.5819 15.4746 34.2481C15.4746 32.9142 16.5599 31.8283 17.8943 31.8283H20.4766L23.7049 29.4092V34.2481C23.7049 35.5819 22.6196 36.6672 21.2858 36.6672Z" fill="#F5DB43"/>
<path d="M30.4883 22.1433V17.305C30.4883 15.9706 31.5736 14.8853 32.908 14.8853H36.2994C37.6333 14.8853 38.7186 15.9706 38.7186 17.305C38.7186 18.6388 37.6333 19.7242 36.2994 19.7242H33.7166L30.4883 22.1433Z" fill="#F5DB43"/>
<path d="M17.4121 33.7651H21.7687V34.7303H17.4121V33.7651Z" fill="white"/>
</svg>
