<svg width="53" height="53" viewBox="0 0 53 53" fill="none" xmlns="http://www.w3.org/2000/svg">
<path d="M26.0603 42.3648H23.5841L19.6821 37.1997L20.9376 35.9436L19.668 35.539L20.427 32.8077L23.1159 30.7007L23.7472 31.5092L21.321 33.4037L20.9164 34.8582L22.8533 35.4754L21.0371 37.2915L24.0952 41.336H26.0603V42.3648Z" fill="white"/>
<path d="M22.9004 31.327L23.8915 31.0791L26.5521 41.7203L25.561 41.9682L22.9004 31.327Z" fill="white"/>
<path d="M29.4165 42.3645H26.9473V41.3357H28.9053L31.9634 37.2912L30.1473 35.4751L32.0841 34.8579L31.6796 33.4104L29.2958 31.6155L29.9129 30.7993L32.5735 32.8004L33.3326 35.5387L32.063 35.9433L33.3185 37.1994L29.4165 42.3645Z" fill="white"/>
<path d="M26.4434 41.7214L29.1004 31.0796L30.0921 31.3269L27.4344 41.9687L26.4434 41.7214Z" fill="white"/>
<path d="M40.4279 42.3648H12.5723L13.6081 37.1996C14.0198 35.1279 15.7016 33.4884 17.7875 33.1269L20.7884 32.6016L20.9657 33.6092L17.9647 34.1344C16.2905 34.4253 14.9496 35.738 14.6157 37.4051L13.8284 41.343H39.1789L38.3915 37.4051C38.0582 35.738 36.7097 34.4253 35.0425 34.1344L32.0415 33.6092L32.2188 32.6016L35.2198 33.1269C37.3056 33.4884 38.9875 35.1279 39.3991 37.1996L40.435 42.3648H40.4279Z" fill="white"/>
<path d="M30.0833 31.6155H22.9176C22.0732 31.6155 21.3848 30.9271 21.3848 30.0826C21.3848 29.2387 22.0732 28.5503 22.9176 28.5503H30.0833C30.9277 28.5503 31.6161 29.2387 31.6161 30.0826C31.6161 30.9271 30.9277 31.6155 30.0833 31.6155ZM22.9176 29.572C22.6338 29.572 22.4065 29.7987 22.4065 30.0826C22.4065 30.3664 22.6338 30.5937 22.9176 30.5937H30.0833C30.3671 30.5937 30.5944 30.3664 30.5944 30.0826C30.5944 29.7987 30.3671 29.572 30.0833 29.572H22.9176Z" fill="white"/>
<path d="M30.5952 29.572H22.4073C21.5628 29.572 20.875 28.8836 20.875 28.0391C20.875 27.1953 21.5628 26.5068 22.4073 26.5068H30.5952C31.4397 26.5068 32.1275 27.1953 32.1275 28.0391C32.1275 28.8836 31.4397 29.572 30.5952 29.572ZM22.4073 27.5286C22.1234 27.5286 21.8967 27.7559 21.8967 28.0391C21.8967 28.323 22.1234 28.5503 22.4073 28.5503H30.5952C30.879 28.5503 31.1058 28.323 31.1058 28.0391C31.1058 27.7559 30.879 27.5286 30.5952 27.5286H22.4073Z" fill="white"/>
<path d="M31.6167 25.4782H21.3853V24.0307C19.7535 22.5691 18.8242 20.5044 18.8242 18.312C18.8242 14.0767 22.2651 10.6353 26.501 10.6353C30.7369 10.6353 34.1777 14.0767 34.1777 18.312C34.1777 20.4974 33.2485 22.5691 31.6167 24.0307V25.4782Z" fill="#F5DB43"/>
<path d="M31.1052 27.5217H21.8962C21.0517 27.5217 20.3633 26.8333 20.3633 25.9894C20.3633 25.145 21.0517 24.4565 21.8962 24.4565H31.1052C31.9497 24.4565 32.6381 25.145 32.6381 25.9894C32.6381 26.8333 31.9497 27.5217 31.1052 27.5217ZM21.8962 25.4783C21.6123 25.4783 21.385 25.7056 21.385 25.9894C21.385 26.2727 21.6123 26.5 21.8962 26.5H31.1052C31.389 26.5 31.6164 26.2727 31.6164 25.9894C31.6164 25.7056 31.389 25.4783 31.1052 25.4783H21.8962Z" fill="white"/>
<path d="M28.5517 25.4781H24.4578V18.823H23.1805C21.9108 18.823 20.875 17.7872 20.875 16.5169C20.875 15.2473 21.9108 14.2114 23.1805 14.2114C24.4507 14.2114 25.4866 15.2473 25.4866 16.5169V17.7942H27.53V16.5169C27.53 15.2473 28.5659 14.2114 29.8361 14.2114C31.1058 14.2114 32.1416 15.2473 32.1416 16.5169C32.1416 17.7872 31.1058 18.823 29.8361 18.823H28.5588V25.4781H28.5517ZM25.4795 24.4563H27.5229V18.8301H25.4795V24.4563ZM28.5517 17.8013H29.829C30.531 17.8013 31.1058 17.2265 31.1058 16.524C31.1058 15.8214 30.531 15.2473 29.829 15.2473C29.1265 15.2473 28.5517 15.8214 28.5517 16.524V17.8013ZM23.1805 15.2402C22.4785 15.2402 21.9038 15.8144 21.9038 16.5169C21.9038 17.2195 22.4785 17.7942 23.1805 17.7942H24.4578V16.5169C24.4578 15.8144 23.883 15.2402 23.1805 15.2402Z" fill="white"/>
</svg>
