<svg width="53" height="53" viewBox="0 0 53 53" fill="none" xmlns="http://www.w3.org/2000/svg">
<mask id="mask0_480_11" style="mask-type:luminance" maskUnits="userSpaceOnUse" x="0" y="0" width="53" height="53">
<path d="M53 0H0V53H53V0Z" fill="white"/>
</mask>
<g mask="url(#mask0_480_11)">
<path d="M34.5681 17.0917C33.3332 17.0917 32.3262 16.0841 32.3262 14.8498C32.3262 13.6149 33.3332 12.6079 34.5681 12.6079C35.8024 12.6079 36.81 13.6149 36.81 14.8498C36.81 16.0841 35.8024 17.0917 34.5681 17.0917ZM34.5681 13.5089C33.8302 13.5089 33.2272 14.1119 33.2272 14.8498C33.2272 15.5877 33.8302 16.1907 34.5681 16.1907C35.306 16.1907 35.909 15.5877 35.909 14.8498C35.909 14.1119 35.306 13.5089 34.5681 13.5089Z" fill="white"/>
<path d="M33.6671 33.2193C32.9292 33.2193 32.3262 32.6163 32.3262 31.8784V23.3643H33.2201V31.8784C33.2201 32.1263 33.4186 32.3254 33.6671 32.3254C33.915 32.3254 34.114 32.1263 34.114 31.8784V25.6062H35.008V31.8784C35.008 32.6163 34.405 33.2193 33.6671 33.2193Z" fill="white"/>
<path d="M35.462 33.2193C34.7241 33.2193 34.1211 32.6163 34.1211 31.8784V25.6062H35.015V31.8784C35.015 32.1263 35.2135 32.3254 35.462 32.3254C35.7105 32.3254 35.909 32.1263 35.909 31.8784V23.3643H36.8029V31.8784C36.8029 32.6163 36.1999 33.2193 35.462 33.2193Z" fill="white"/>
<path d="M37.2572 25.1592C36.5194 25.1592 35.9163 24.5562 35.9163 23.8183V19.341H36.8103V23.8183C36.8103 24.0662 37.0087 24.2653 37.2572 24.2653C37.5058 24.2653 37.7042 24.0662 37.7042 23.8183V19.5825C37.7042 18.7027 36.9875 17.9931 36.1148 17.9931H32.7734V17.0991H36.1148C37.4846 17.0991 38.5981 18.2133 38.5981 19.5825V23.8183C38.5981 24.5562 37.9951 25.1592 37.2572 25.1592Z" fill="white"/>
<path d="M31.8786 25.159C31.1407 25.159 30.5371 24.556 30.5371 23.8181V19.3408H31.4316V23.8181C31.4316 24.066 31.6301 24.2651 31.8786 24.2651C32.1265 24.2651 32.3256 24.066 32.3256 23.8181V19.3408H33.2195V23.8181C33.2195 24.556 32.6165 25.159 31.8786 25.159Z" fill="white"/>
<path d="M19.335 33.2193C18.5972 33.2193 17.9941 32.6163 17.9941 31.8784V25.6062H18.8881V31.8784C18.8881 32.1263 19.0871 32.3254 19.335 32.3254C19.5836 32.3254 19.782 32.1263 19.782 31.8784V23.3643H20.676V31.8784C20.676 32.6163 20.0729 33.2193 19.335 33.2193Z" fill="white"/>
<path d="M17.5401 33.2193C16.8022 33.2193 16.1992 32.6163 16.1992 31.8784V23.3643H17.0931V31.8784C17.0931 32.1263 17.2916 32.3254 17.5401 32.3254C17.7886 32.3254 17.9871 32.1263 17.9871 31.8784V25.6062H18.881V31.8784C18.881 32.6163 18.278 33.2193 17.5401 33.2193Z" fill="white"/>
<path d="M15.7511 25.1592C15.0132 25.1592 14.4102 24.5562 14.4102 23.8183V19.5825C14.4102 18.2133 15.5238 17.0991 16.8935 17.0991H20.2349V17.9931H16.8935C16.0137 17.9931 15.3041 18.7097 15.3041 19.5825V23.8183C15.3041 24.0662 15.5025 24.2653 15.7511 24.2653C15.9996 24.2653 16.198 24.0662 16.198 23.8183V19.341H17.0919V23.8183C17.0919 24.5562 16.4889 25.1592 15.7511 25.1592Z" fill="white"/>
<path d="M21.1222 25.159C20.3843 25.159 19.7812 24.556 19.7812 23.8181V19.3408H20.6752V23.8181C20.6752 24.066 20.8742 24.2651 21.1222 24.2651C21.3707 24.2651 21.5691 24.066 21.5691 23.8181V19.3408H22.4636V23.8181C22.4636 24.556 21.86 25.159 21.1222 25.159Z" fill="white"/>
<path d="M26.5013 40.3921C19.5977 40.3921 12.6094 39.1577 12.6094 36.8092V32.3325H13.5033V36.8092C13.5033 37.9305 18.4482 39.4981 26.4942 39.4981C34.5402 39.4981 39.4851 37.9305 39.4851 36.8092V32.3325H40.379V36.8092C40.379 39.1648 33.3907 40.3921 26.4871 40.3921H26.5013Z" fill="white"/>
<path d="M18.4333 17.0917C17.199 17.0917 16.1914 16.0841 16.1914 14.8498C16.1914 13.6149 17.199 12.6079 18.4333 12.6079C19.6682 12.6079 20.6752 13.6149 20.6752 14.8498C20.6752 16.0841 19.6682 17.0917 18.4333 17.0917ZM18.4333 13.5089C17.6954 13.5089 17.0924 14.1119 17.0924 14.8498C17.0924 15.5877 17.6954 16.1907 18.4333 16.1907C19.1712 16.1907 19.7742 15.5877 19.7742 14.8498C19.7742 14.1119 19.1712 13.5089 18.4333 13.5089Z" fill="white"/>
<path d="M32.7158 29.9982C28.9057 29.53 24.0886 29.53 20.2785 29.9982L20.1719 29.1113C24.0527 28.6361 28.9487 28.6361 32.8295 29.1113L32.7229 29.9982H32.7158Z" fill="white"/>
<path d="M28.7494 15.2971C28.7494 16.5355 27.746 17.539 26.5075 17.539C25.2691 17.539 24.2656 16.5355 24.2656 15.2971C24.2656 14.0586 25.2691 13.0552 26.5075 13.0552C27.746 13.0552 28.7494 14.0586 28.7494 15.2971Z" fill="#F5DB43"/>
<path d="M33.0206 13.5941C32.4318 13.3674 31.7793 13.7219 31.6444 14.3391L30.9772 17.532L27.8414 18.426H25.1525L22.0167 17.532L21.3495 14.3391C21.2217 13.7219 20.5692 13.3603 19.9732 13.5941C19.5121 13.772 19.2424 14.2543 19.3343 14.7437L20.0015 18.1922C20.1363 18.8871 20.654 19.4477 21.3353 19.632L24.2515 20.427V26.4931L23.3858 32.3891C23.2863 33.0563 23.8045 33.6593 24.4853 33.6593C25.0318 33.6593 25.5 33.2548 25.5853 32.7154L26.4369 26.9401H26.5711L27.4227 32.7154C27.501 33.2619 27.9692 33.6593 28.5227 33.6593C29.1964 33.6593 29.7146 33.0563 29.6222 32.3891L28.7565 26.4931V20.427L31.6727 19.632C32.354 19.4477 32.8717 18.8871 33.0065 18.1922L33.6737 14.7437C33.7656 14.2543 33.4965 13.772 33.0348 13.5941H33.0206Z" fill="#F5DB43"/>
<path d="M26.5013 35.9079C19.5977 35.9079 12.6094 34.6736 12.6094 32.3251C12.6094 31.2745 13.9291 30.4165 16.5325 29.7563L16.7528 30.622C14.1911 31.2674 13.5104 31.9912 13.5104 32.318C13.5104 33.4387 18.4553 35.0069 26.5013 35.0069C34.5472 35.0069 39.4921 33.4387 39.4921 32.318C39.4921 31.9912 38.8114 31.2674 36.2497 30.622L36.47 29.7563C39.0735 30.4094 40.3931 31.2745 40.3931 32.3251C40.3931 34.6806 33.4048 35.9079 26.5013 35.9079Z" fill="white"/>
</g>
</svg>
